<mxfile host="app.diagrams.net" modified="2024-07-14T17:20:26.586Z" agent="Mozilla/5.0 (Macintosh; Intel Mac OS X 10.15; rv:127.0) Gecko/20100101 Firefox/127.0" etag="XiqikhSSyxL9ulTdA4BD" version="24.6.5" type="github">
  <diagram name="第 1 页" id="drugMVpVY49pTW6I4Uma">
    <mxGraphModel dx="1414" dy="675" grid="0" gridSize="10" guides="1" tooltips="1" connect="1" arrows="1" fold="1" page="1" pageScale="1" pageWidth="827" pageHeight="1169" math="0" shadow="0">
      <root>
        <mxCell id="0" />
        <mxCell id="1" parent="0" />
        <mxCell id="TJfKg3fyn9HPlrujISRE-1" value="&lt;b&gt;stage1(io bound)&lt;/b&gt;" style="rounded=0;whiteSpace=wrap;html=1;fillColor=#f8cecc;strokeColor=#b85450;" vertex="1" parent="1">
          <mxGeometry x="142" y="250" width="121" height="62" as="geometry" />
        </mxCell>
        <mxCell id="TJfKg3fyn9HPlrujISRE-3" value="&lt;b&gt;stage2(cpu bound)&lt;/b&gt;" style="rounded=0;whiteSpace=wrap;html=1;fillColor=#dae8fc;strokeColor=#6c8ebf;" vertex="1" parent="1">
          <mxGeometry x="142" y="312" width="121" height="62" as="geometry" />
        </mxCell>
        <mxCell id="TJfKg3fyn9HPlrujISRE-5" value="&lt;b&gt;stage1(io bound)&lt;/b&gt;" style="rounded=0;whiteSpace=wrap;html=1;fillColor=#f8cecc;strokeColor=#b85450;" vertex="1" parent="1">
          <mxGeometry x="142" y="374" width="121" height="62" as="geometry" />
        </mxCell>
        <mxCell id="TJfKg3fyn9HPlrujISRE-6" value="&lt;b&gt;stage2(cpu bound)&lt;/b&gt;" style="rounded=0;whiteSpace=wrap;html=1;fillColor=#dae8fc;strokeColor=#6c8ebf;" vertex="1" parent="1">
          <mxGeometry x="142" y="436" width="121" height="62" as="geometry" />
        </mxCell>
        <mxCell id="TJfKg3fyn9HPlrujISRE-7" value="&lt;span style=&quot;font-size: 15px;&quot;&gt;...&lt;/span&gt;" style="rounded=0;whiteSpace=wrap;html=1;fillColor=#f8cecc;strokeColor=#b85450;fontStyle=1;fontSize=15;" vertex="1" parent="1">
          <mxGeometry x="142" y="498" width="121" height="62" as="geometry" />
        </mxCell>
        <mxCell id="TJfKg3fyn9HPlrujISRE-8" value="&lt;b&gt;stage1(io bound)&lt;/b&gt;" style="rounded=0;whiteSpace=wrap;html=1;fillColor=#f8cecc;strokeColor=#b85450;" vertex="1" parent="1">
          <mxGeometry x="308" y="250" width="121" height="62" as="geometry" />
        </mxCell>
        <mxCell id="TJfKg3fyn9HPlrujISRE-9" value="&lt;b&gt;stage2(cpu bound)&lt;/b&gt;" style="rounded=0;whiteSpace=wrap;html=1;fillColor=#dae8fc;strokeColor=#6c8ebf;" vertex="1" parent="1">
          <mxGeometry x="308" y="312" width="121" height="62" as="geometry" />
        </mxCell>
        <mxCell id="TJfKg3fyn9HPlrujISRE-10" value="&lt;b&gt;stage1(io bound)&lt;/b&gt;" style="rounded=0;whiteSpace=wrap;html=1;fillColor=#f8cecc;strokeColor=#b85450;" vertex="1" parent="1">
          <mxGeometry x="308" y="374" width="121" height="62" as="geometry" />
        </mxCell>
        <mxCell id="TJfKg3fyn9HPlrujISRE-11" value="&lt;b&gt;stage2(cpu bound)&lt;/b&gt;" style="rounded=0;whiteSpace=wrap;html=1;fillColor=#dae8fc;strokeColor=#6c8ebf;" vertex="1" parent="1">
          <mxGeometry x="308" y="436" width="121" height="62" as="geometry" />
        </mxCell>
        <mxCell id="TJfKg3fyn9HPlrujISRE-12" value="&lt;span style=&quot;font-size: 15px;&quot;&gt;...&lt;/span&gt;" style="rounded=0;whiteSpace=wrap;html=1;fillColor=#f8cecc;strokeColor=#b85450;fontStyle=1;fontSize=15;" vertex="1" parent="1">
          <mxGeometry x="308" y="498" width="121" height="62" as="geometry" />
        </mxCell>
        <mxCell id="TJfKg3fyn9HPlrujISRE-13" value="&lt;b&gt;stage1(io bound)&lt;/b&gt;" style="rounded=0;whiteSpace=wrap;html=1;fillColor=#f8cecc;strokeColor=#b85450;" vertex="1" parent="1">
          <mxGeometry x="520" y="250" width="121" height="62" as="geometry" />
        </mxCell>
        <mxCell id="TJfKg3fyn9HPlrujISRE-14" value="&lt;b&gt;stage2(cpu bound)&lt;/b&gt;" style="rounded=0;whiteSpace=wrap;html=1;fillColor=#dae8fc;strokeColor=#6c8ebf;" vertex="1" parent="1">
          <mxGeometry x="520" y="312" width="121" height="62" as="geometry" />
        </mxCell>
        <mxCell id="TJfKg3fyn9HPlrujISRE-15" value="&lt;b&gt;stage1(io bound)&lt;/b&gt;" style="rounded=0;whiteSpace=wrap;html=1;fillColor=#f8cecc;strokeColor=#b85450;" vertex="1" parent="1">
          <mxGeometry x="520" y="374" width="121" height="62" as="geometry" />
        </mxCell>
        <mxCell id="TJfKg3fyn9HPlrujISRE-16" value="&lt;b&gt;stage2(cpu bound)&lt;/b&gt;" style="rounded=0;whiteSpace=wrap;html=1;fillColor=#dae8fc;strokeColor=#6c8ebf;" vertex="1" parent="1">
          <mxGeometry x="520" y="436" width="121" height="62" as="geometry" />
        </mxCell>
        <mxCell id="TJfKg3fyn9HPlrujISRE-17" value="&lt;span style=&quot;font-size: 15px;&quot;&gt;...&lt;/span&gt;" style="rounded=0;whiteSpace=wrap;html=1;fillColor=#f8cecc;strokeColor=#b85450;fontStyle=1;fontSize=15;" vertex="1" parent="1">
          <mxGeometry x="520" y="498" width="121" height="62" as="geometry" />
        </mxCell>
        <mxCell id="TJfKg3fyn9HPlrujISRE-18" value="&lt;font style=&quot;font-size: 20px;&quot;&gt;&lt;b&gt;...&lt;/b&gt;&lt;/font&gt;" style="text;html=1;align=center;verticalAlign=middle;whiteSpace=wrap;rounded=0;" vertex="1" parent="1">
          <mxGeometry x="447" y="395" width="60" height="30" as="geometry" />
        </mxCell>
      </root>
    </mxGraphModel>
  </diagram>
</mxfile>
